<svg xmlns="http://www.w3.org/2000/svg" viewBox="0 0 64 64" role="img" aria-label="QR and barcode icon">
  <rect width="64" height="64" rx="14" fill="#f6f7fb"/>
  <path d="M0 14C0 6.3 6.3 0 14 0h36c7.7 0 14 6.3 14 14v36c0 7.7-6.3 14-14 14H14C6.3 64 0 57.7 0 50V14Z" fill="#0f766e"/>
  <rect x="9" y="9" width="46" height="46" rx="8" fill="#ffffff"/>
  <rect x="14" y="14" width="14" height="14" rx="2" fill="#172034"/>
  <rect x="18" y="18" width="6" height="6" fill="#ffffff"/>
  <rect x="14" y="36" width="4" height="14" fill="#172034"/>
  <rect x="22" y="36" width="2" height="14" fill="#172034"/>
  <rect x="28" y="36" width="5" height="14" fill="#172034"/>
  <rect x="37" y="36" width="2" height="14" fill="#172034"/>
  <rect x="43" y="36" width="7" height="14" fill="#172034"/>
  <rect x="34" y="14" width="4" height="4" fill="#ea580c"/>
  <rect x="44" y="14" width="6" height="6" fill="#172034"/>
  <rect x="34" y="24" width="6" height="6" fill="#172034"/>
  <rect x="46" y="26" width="4" height="4" fill="#ea580c"/>
</svg>
